<svg width="482" height="482" viewBox="0 0 482 482" fill="none" xmlns="http://www.w3.org/2000/svg">
<path d="M242 4.5C111.937 4.5 6.5 109.937 6.5 240C6.5 370.063 111.937 475.5 242 475.5C372.063 475.5 477.5 370.063 477.5 240C477.5 109.937 372.063 4.5 242 4.5ZM48.5059 130.266C127.411 209.367 207.527 227.381 276.01 216.867C344.765 206.311 402.285 166.912 435.346 130.423L442.016 136.466C407.856 174.168 348.563 214.834 277.376 225.764C205.917 236.735 122.963 217.653 42.1338 136.622L45.3193 133.444L48.5059 130.266ZM413.784 98.0908L417.209 101.011C389.819 133.135 338.616 171.914 275.976 183.43C212.984 195.01 139.021 178.897 66.9365 102.168L73.4951 96.0059C143.618 170.646 214.551 185.571 274.349 174.578C334.496 163.521 383.975 126.118 410.36 95.1719L413.784 98.0908ZM104.453 66.2246C160.042 128.859 217.371 141.623 266.255 132.751C315.519 123.81 356.844 92.7622 379.521 66.752L382.913 69.71L386.305 72.667C362.675 99.7687 319.651 132.207 267.861 141.606C215.691 151.075 155.262 137.032 97.7217 72.1982L101.087 69.2119L104.453 66.2246ZM138.706 41.7129C183.596 88.9446 226.999 98.3161 262.831 91.6016C299.02 84.8201 328.273 61.4773 344.063 41.9814L347.561 44.8135L351.057 47.6455C334.316 68.3155 303.32 93.1716 264.488 100.448C225.3 107.792 178.911 97.0795 132.183 47.9131L135.444 44.8135L138.706 41.7129Z" stroke="#F7941D" stroke-width="9"/>
<path d="M477.5 240C477.5 370.063 372.063 475.5 242 475.5C111.937 475.5 6.5 370.063 6.5 240C6.5 109.937 111.937 4.5 242 4.5C372.063 4.5 477.5 109.937 477.5 240ZM351.734 433.494C272.633 354.589 254.619 274.473 265.133 205.99C275.689 137.235 315.088 79.7149 351.577 46.6543L345.534 39.9844C307.832 74.1437 267.166 133.437 256.236 204.624C245.265 276.083 264.347 359.037 345.378 439.866L348.556 436.681L351.734 433.494ZM383.909 68.2158L380.989 64.791C348.865 92.1815 310.086 143.384 298.57 206.024C286.99 269.016 303.103 342.979 379.832 415.063L385.994 408.505C311.354 338.382 296.429 267.449 307.422 207.651C318.479 147.504 355.882 98.0251 386.828 71.6396L383.909 68.2158ZM415.775 377.547C353.141 321.958 340.377 264.629 349.249 215.745C358.19 166.481 389.238 125.156 415.248 102.479L412.29 99.0869L409.333 95.6953C382.231 119.325 349.793 162.349 340.394 214.139C330.925 266.309 344.968 326.738 409.802 384.278L412.788 380.913L415.775 377.547ZM440.287 343.294C393.055 298.404 383.684 255.001 390.398 219.169C397.18 182.98 420.523 153.727 440.019 137.937L437.187 134.439L434.354 130.943C413.685 147.684 388.828 178.68 381.552 217.512C374.208 256.7 384.921 303.089 434.087 349.817L437.187 346.556L440.287 343.294Z" stroke="#D27728" stroke-width="9"/>
<path d="M242 477.5C111.937 477.5 6.5 372.063 6.5 242C6.5 111.937 111.937 6.5 242 6.5C372.063 6.5 477.5 111.937 477.5 242C477.5 372.063 372.063 477.5 242 477.5ZM48.5059 351.734C127.411 272.633 207.527 254.619 276.01 265.133C344.765 275.689 402.285 315.088 435.346 351.577L442.016 345.534C407.856 307.832 348.563 267.166 277.376 256.236C205.917 245.265 122.963 264.347 42.1338 345.378L45.3193 348.556L48.5059 351.734ZM413.784 383.909L417.209 380.989C389.819 348.865 338.616 310.086 275.976 298.57C212.984 286.99 139.021 303.103 66.9365 379.832L73.4951 385.994C143.618 311.354 214.551 296.429 274.349 307.422C334.496 318.479 383.975 355.882 410.36 386.828L413.784 383.909ZM104.453 415.775C160.042 353.141 217.371 340.377 266.255 349.249C315.519 358.19 356.844 389.238 379.521 415.248L382.913 412.29L386.305 409.333C362.675 382.231 319.651 349.793 267.861 340.394C215.691 330.925 155.262 344.968 97.7217 409.802L101.087 412.788L104.453 415.775ZM138.706 440.287C183.596 393.055 226.999 383.684 262.831 390.398C299.02 397.18 328.273 420.523 344.063 440.019L347.561 437.187L351.057 434.354C334.316 413.685 303.32 388.828 264.488 381.552C225.3 374.208 178.911 384.921 132.183 434.087L135.444 437.187L138.706 440.287Z" stroke="#D27728" stroke-width="9"/>
<path d="M242 477.5C111.937 477.5 6.5 372.063 6.5 242C6.5 111.937 111.937 6.5 242 6.5C372.063 6.5 477.5 111.937 477.5 242C477.5 372.063 372.063 477.5 242 477.5ZM48.5059 351.734C127.411 272.633 207.527 254.619 276.01 265.133C344.765 275.689 402.285 315.088 435.346 351.577L442.016 345.534C407.856 307.832 348.563 267.166 277.376 256.236C205.917 245.265 122.963 264.347 42.1338 345.378L45.3193 348.556L48.5059 351.734ZM413.784 383.909L417.209 380.989C389.819 348.865 338.616 310.086 275.976 298.57C212.984 286.99 139.021 303.103 66.9365 379.832L73.4951 385.994C143.618 311.354 214.551 296.429 274.349 307.422C334.496 318.479 383.975 355.882 410.36 386.828L413.784 383.909ZM104.453 415.775C160.042 353.141 217.371 340.377 266.255 349.249C315.519 358.19 356.844 389.238 379.521 415.248L382.913 412.29L386.305 409.333C362.675 382.231 319.651 349.793 267.861 340.394C215.691 330.925 155.262 344.968 97.7217 409.802L101.087 412.788L104.453 415.775ZM138.706 440.287C183.596 393.055 226.999 383.684 262.831 390.398C299.02 397.18 328.273 420.523 344.063 440.019L347.561 437.187L351.057 434.354C334.316 413.685 303.32 388.828 264.488 381.552C225.3 374.208 178.911 384.921 132.183 434.087L135.444 437.187L138.706 440.287Z" stroke="#D27728" stroke-width="9"/>
<path d="M4.5 240C4.5 370.063 109.937 475.5 240 475.5C370.063 475.5 475.5 370.063 475.5 240C475.5 109.937 370.063 4.5 240 4.5C109.937 4.5 4.5 109.937 4.5 240ZM136.466 39.9844C174.167 74.1431 215.339 134.008 226.787 205.758C238.279 277.785 219.73 361.334 138.678 442.186L132.322 435.814C211.402 356.931 228.921 276.251 217.899 207.176C206.834 137.824 166.913 79.7155 130.423 46.6543L136.466 39.9844ZM98.0908 68.2158L101.011 64.791C133.141 92.186 172.385 144.061 184.382 207.358C196.445 271.009 180.837 345.669 104.081 417.779L97.9189 411.221C172.532 341.124 187.005 269.53 175.539 209.034C164.007 148.186 126.112 98.0206 95.1719 71.6396L98.0908 68.2158ZM69.71 99.0869L72.667 95.6953C99.7856 119.339 132.526 163.134 142.247 215.667C152.038 268.578 138.353 329.797 73.4873 387.365L67.5127 380.635C130.116 325.075 142.591 266.991 133.397 217.305C124.134 167.241 92.7453 125.141 66.752 102.479L69.71 99.0869ZM44.8135 134.439L47.6455 130.943C68.3333 147.699 93.5847 179.424 101.285 218.952C109.056 258.842 98.8095 305.992 49.5996 352.762L43.4004 346.238C90.5885 301.39 99.5816 257.275 92.4512 220.673C85.2502 183.708 61.4595 153.712 41.9814 137.937L44.8135 134.439Z" stroke="#F7941D" stroke-width="9"/>
<path d="M241 9C112.87 9 9 112.87 9 241C9 369.13 112.87 473 241 473C369.13 473 473 369.13 473 241C473 112.87 369.13 9 241 9Z" stroke="#F7941D" stroke-width="18"/>
</svg>
