<?xml version="1.0" encoding="UTF-8"?>
<svg version="1.1" xmlns="http://www.w3.org/2000/svg" width="297" height="400">
<path d="M0 0 C2.51033138 1.30143908 4.85691491 2.63650749 7.25 4.125 C8.76603157 5.04184698 10.28302258 5.95710868 11.80078125 6.87109375 C13.04335693 7.62302002 13.04335693 7.62302002 14.31103516 8.39013672 C19.31598263 11.3865616 24.38025828 14.28052812 29.4375 17.1875 C31.68626842 18.48295053 33.93496541 19.77852508 36.18359375 21.07421875 C37.31265137 21.72438965 38.44170898 22.37456055 39.60498047 23.04443359 C45.0716998 26.19332054 50.53574887 29.34683264 56 32.5 C58.16665311 33.7500235 60.33331979 35.00002347 62.5 36.25 C75.5 43.75 88.5 51.25 101.5 58.75 C102.57266113 59.36883057 103.64532227 59.98766113 104.75048828 60.62524414 C106.91557071 61.87435518 109.08060982 63.12354129 111.24560547 64.37280273 C116.68615706 67.51202309 122.12747216 70.64990563 127.5703125 73.78515625 C140.10440626 81.00689757 152.6298432 88.24286219 165.109375 95.55859375 C169.18973028 97.94974763 173.28535352 100.3120559 177.390625 102.66015625 C179.42715401 103.83581508 181.46361488 105.01159196 183.5 106.1875 C184.45680664 106.72842285 185.41361328 107.2693457 186.39941406 107.82666016 C187.26791992 108.33116699 188.13642578 108.83567383 189.03125 109.35546875 C189.80017578 109.79528076 190.56910156 110.23509277 191.36132812 110.68823242 C191.90208984 111.12111572 192.44285156 111.55399902 193 112 C193 112.99 193 113.98 193 115 C192.36835938 115.35078613 191.73671875 115.70157227 191.0859375 116.06298828 C177.33962119 123.70615803 163.67951656 131.47342812 150.109375 139.42578125 C132.48495124 149.75232468 114.74675932 159.88554823 97 170 C108.63127911 177.36961612 120.60200381 184.15720198 132.54052734 191.01220703 C139.10028014 194.78140303 145.65088926 198.56645592 152.20288086 202.34912109 C157.26172801 205.2689411 162.3219034 208.18636419 167.38757324 211.09432983 C169.76923502 212.46174766 172.1500302 213.83067039 174.53076172 215.19970703 C176.20326021 216.16064553 177.87700336 217.11941672 179.55078125 218.078125 C184.47613151 220.91129108 189.33262961 223.7569823 194 227 C191.07370751 230.17440814 188.15654511 232.2534503 184.3984375 234.36328125 C183.28194824 234.99500244 182.16545898 235.62672363 181.01513672 236.27758789 C179.80176234 236.95590002 178.58838331 237.63420384 177.375 238.3125 C176.11301227 239.02454459 174.85146267 239.73736621 173.59033203 240.45092773 C171.64596335 241.55093263 169.70133341 242.65044428 167.75534058 243.74757385 C161.43721136 247.30991281 155.15329606 250.93045974 148.875 254.5625 C146.74355877 255.79439056 144.61204815 257.02616105 142.48046875 258.2578125 C141.42263184 258.86915039 140.36479492 259.48048828 139.27490234 260.11035156 C136.45241234 261.73895396 133.62796186 263.36407592 130.80200195 264.98664856 C129.05727001 265.9884617 127.31299943 266.99107369 125.56884766 267.99389648 C123.4014322 269.23973002 121.23321005 270.4841618 119.06396484 271.72680664 C111.61839183 276.01038788 104.29419685 280.46481302 97 285 C98.06806885 285.60920288 98.06806885 285.60920288 99.15771484 286.23071289 C115.37736201 295.4844457 131.57431245 304.7759975 147.74267578 314.11914062 C152.22928017 316.7098167 156.719261 319.29461705 161.20898438 321.87988281 C165.49588227 324.35040434 169.77908558 326.82728859 174.06201172 329.3046875 C176.84074516 330.9081049 179.62482273 332.50183473 182.41015625 334.09375 C183.98196034 334.99967129 185.5535889 335.90589721 187.125 336.8125 C188.1914978 337.4163855 188.1914978 337.4163855 189.27954102 338.0324707 C190.88694033 338.96552841 192.44992203 339.97453059 194 341 C194 341.66 194 342.32 194 343 C193.14341797 343.48073975 193.14341797 343.48073975 192.26953125 343.97119141 C180.23451183 350.73251889 168.25239111 357.57392662 156.34228516 364.55297852 C150.92221389 367.72450098 145.49038005 370.87368931 140.03515625 373.984375 C139.15188911 374.48810638 139.15188911 374.48810638 138.2507782 375.00201416 C135.27947741 376.69535708 132.30618354 378.38511247 129.33081055 380.07128906 C123.68396578 383.27805079 118.07906349 386.53569833 112.546875 389.9375 C111.54414551 390.54972412 110.54141602 391.16194824 109.50830078 391.79272461 C107.63833174 392.94051509 105.77669248 394.10203218 103.92529297 395.27954102 C103.09658691 395.78670654 102.26788086 396.29387207 101.4140625 396.81640625 C100.7020166 397.26443604 99.9899707 397.71246582 99.25634766 398.17407227 C96.13582495 399.31632809 94.18702243 398.84205352 91 398 C88.52832031 396.83935547 88.52832031 396.83935547 86.078125 395.3671875 C85.14887207 394.81619385 84.21961914 394.2652002 83.26220703 393.69750977 C82.26817871 393.09608154 81.27415039 392.49465332 80.25 391.875 C78.08639879 390.58906731 75.92231998 389.3039379 73.7578125 388.01953125 C72.64180664 387.3538916 71.52580078 386.68825195 70.37597656 386.00244141 C64.98746899 382.80627861 59.55647405 379.68489786 54.125 376.5625 C51.94001564 375.30353904 49.75512028 374.04442362 47.5703125 372.78515625 C46.48524414 372.16012207 45.40017578 371.53508789 44.28222656 370.89111328 C38.85340058 367.76319852 33.42680719 364.63141552 28 361.5 C25.83334417 360.24998121 23.6666775 358.99998122 21.5 357.75 C15 354 15 354 8.5 350.25 C7.42733887 349.63116943 6.35467773 349.01233887 5.24951172 348.37475586 C3.08442929 347.12564482 0.91939018 345.87645871 -1.24560547 344.62719727 C-6.68615706 341.48797691 -12.12747216 338.35009437 -17.5703125 335.21484375 C-28.02206272 329.19252629 -38.46293853 323.15321004 -48.875 317.0625 C-61.0689795 309.93203587 -73.33317048 302.92735426 -85.60644531 295.93457031 C-91.40702492 292.62782263 -97.20341263 289.31373944 -103 286 C-101.73172274 282.19516823 -100.56878831 281.89015182 -97.12890625 279.953125 C-96.09314453 279.36337891 -95.05738281 278.77363281 -93.99023438 278.16601562 C-92.85908203 277.53373047 -91.72792969 276.90144531 -90.5625 276.25 C-89.38161359 275.58104434 -88.20128302 274.9111066 -87.02148438 274.24023438 C-84.56741044 272.84578107 -82.11098596 271.45560687 -79.65283203 270.06835938 C-74.07920574 266.91832879 -68.54138967 263.70627739 -63 260.5 C-60.84523712 259.25618981 -58.69028824 258.01270178 -56.53515625 256.76953125 C-55.46410645 256.15158691 -54.39305664 255.53364258 -53.28955078 254.89697266 C-49.92161948 252.95480061 -46.5527104 251.01433373 -43.18359375 249.07421875 C-31.08813954 242.10677118 -19.01214469 235.11025277 -7 228 C-10.42857477 225.13522487 -13.87938938 222.79396436 -17.76953125 220.6015625 C-19.4548999 219.64624634 -19.4548999 219.64624634 -21.17431641 218.67163086 C-22.0629538 218.17178177 -22.0629538 218.17178177 -22.96954346 217.66183472 C-26.13454294 215.8812277 -29.29123997 214.08598771 -32.44921875 212.29296875 C-33.08956055 211.92992142 -33.72990234 211.56687408 -34.38964844 211.19282532 C-40.32942743 207.82210834 -46.2320298 204.38936606 -52.125 200.9375 C-59.49033799 196.62487638 -66.87116748 192.34122565 -74.27148438 188.08886719 C-91.41160727 178.23501151 -91.41160727 178.23501151 -98.125 174.1875 C-99.09695312 173.60355469 -100.06890625 173.01960937 -101.0703125 172.41796875 C-102.02550781 171.71607422 -102.02550781 171.71607422 -103 171 C-103 170.34 -103 169.68 -103 169 C-102.36835937 168.64921387 -101.73671875 168.29842773 -101.0859375 167.93701172 C-88.39718115 160.88186207 -75.76716683 153.7462582 -63.24511719 146.3984375 C-56.04446876 142.1779337 -48.80659137 138.0261841 -41.55178833 133.89984131 C-29.59830033 127.10080278 -17.74921861 120.14699012 -6 113 C-6.63164063 112.64921387 -7.26328125 112.29842773 -7.9140625 111.93701172 C-21.66194051 104.29297364 -35.32423012 96.52596515 -48.89453125 88.5703125 C-54.18900094 85.4678098 -59.50192588 82.39839295 -64.82104492 79.33837891 C-69.14815636 76.84884298 -73.47111672 74.35216878 -77.79296875 71.85351562 C-79.95615229 70.60329566 -82.12023604 69.35463215 -84.28515625 68.10742188 C-87.40294016 66.30841178 -90.51470486 64.49941887 -93.625 62.6875 C-94.57391113 62.142146 -95.52282227 61.59679199 -96.50048828 61.03491211 C-97.35884277 60.5322583 -98.21719727 60.02960449 -99.1015625 59.51171875 C-100.23585693 58.85369263 -100.23585693 58.85369263 -101.39306641 58.18237305 C-102.18849854 57.59709839 -102.18849854 57.59709839 -103 57 C-103 56.34 -103 55.68 -103 55 C-102.2879541 54.59386475 -101.5759082 54.18772949 -100.84228516 53.76928711 C-80.38710812 42.09907376 -59.94877763 30.40019195 -39.60986328 18.52807617 C-37.60285638 17.35702736 -35.59474445 16.18787006 -33.58544922 15.02075195 C-28.85858355 12.2720499 -24.15433969 9.49540672 -19.48828125 6.64453125 C-18.62323975 6.12342773 -17.75819824 5.60232422 -16.86694336 5.06542969 C-15.25651734 4.09415678 -13.65379174 3.10994733 -12.06079102 2.11035156 C-7.67743627 -0.51263366 -5.08061934 -1.80870048 0 0 Z " fill="#7985F8" transform="translate(103,1)"/>
</svg>
