<svg width="435" height="431" viewBox="0 0 435 431" fill="none" xmlns="http://www.w3.org/2000/svg">
<path d="M0.853027 32.5282C-4.36111 12.2836 15.237 -5.5242 34.8911 1.5995L388.711 129.844C410.639 137.791 411.819 168.36 390.571 177.975L281.069 227.528L421.599 363.6C432.709 374.358 432.352 391.414 420.803 401.698L396.705 423.157C385.156 433.441 366.788 433.057 355.678 422.3L209.029 280.302L144.475 407.635C133.634 429.019 102.086 425.58 96.106 402.362L0.853027 32.5282Z" fill="url(#paint0_linear_3_28)"/>
<path d="M7.53333 24.9291C3.56014 10.1712 17.7521 -2.99984 32.173 2.06196L396.574 129.973C411.609 135.251 411.774 156.454 396.822 161.964L267.889 209.481L425.923 347.317C437.577 357.481 438.001 374.425 426.871 385.161L404.563 406.677C393.432 417.413 374.963 417.876 363.309 407.711L209.401 273.473L151.554 385.872C140.681 406.996 109.507 403.674 103.33 380.733L7.53333 24.9291Z" fill="url(#paint1_linear_3_28)"/>
<path d="M159.302 182.124L274.142 136.767C275.715 136.145 277.269 137.706 276.641 139.276C276.422 139.824 276.017 140.276 275.497 140.555L262.302 147.624L174.274 186.587C171.979 187.603 169.891 189.034 168.117 190.809C165.302 193.624 163.374 197.202 162.571 201.101L160.302 212.124L159.302 182.124Z" fill="#DCCCF9" fill-opacity="0.29"/>
<g filter="url(#filter0_f_3_28)">
<path d="M186.695 174.001C185.586 172.968 172.598 174.75 167.546 179.88C162.495 185.011 159.299 190.008 160.408 191.041C161.518 192.073 165.154 187.617 170.206 182.486C175.258 177.355 187.805 175.033 186.695 174.001Z" fill="white"/>
</g>
<g filter="url(#filter1_i_3_28)">
<path d="M271.927 122.557C281.116 125.347 281.472 138.226 272.452 141.519L172.414 178.046C165.707 180.495 161.245 186.874 161.245 194.014L161.245 210.951C161.245 211.97 159.9 212.337 159.383 211.458L84.2345 83.7059C79.6162 75.8549 87.0434 66.4207 95.7592 69.0671L271.927 122.557Z" fill="#7366FC"/>
</g>
<defs>
<filter id="filter0_f_3_28" x="153.988" y="167.52" width="38.9762" height="29.8708" filterUnits="userSpaceOnUse" color-interpolation-filters="sRGB">
<feFlood flood-opacity="0" result="BackgroundImageFix"/>
<feBlend mode="normal" in="SourceGraphic" in2="BackgroundImageFix" result="shape"/>
<feGaussianBlur stdDeviation="3.1" result="effect1_foregroundBlur_3_28"/>
</filter>
<filter id="filter1_i_3_28" x="82.8189" y="68.6124" width="196.203" height="147.341" filterUnits="userSpaceOnUse" color-interpolation-filters="sRGB">
<feFlood flood-opacity="0" result="BackgroundImageFix"/>
<feBlend mode="normal" in="SourceGraphic" in2="BackgroundImageFix" result="shape"/>
<feColorMatrix in="SourceAlpha" type="matrix" values="0 0 0 0 0 0 0 0 0 0 0 0 0 0 0 0 0 0 127 0" result="hardAlpha"/>
<feOffset dy="4"/>
<feGaussianBlur stdDeviation="2"/>
<feComposite in2="hardAlpha" operator="arithmetic" k2="-1" k3="1"/>
<feColorMatrix type="matrix" values="0 0 0 0 0 0 0 0 0 0 0 0 0 0 0 0 0 0 0.25 0"/>
<feBlend mode="normal" in2="shape" result="effect1_innerShadow_3_28"/>
</filter>
<linearGradient id="paint0_linear_3_28" x1="172.935" y1="-30.5174" x2="172.935" y2="415.495" gradientUnits="userSpaceOnUse">
<stop stop-color="#7366FF"/>
<stop offset="1" stop-color="#7366F9"/>
</linearGradient>
<linearGradient id="paint1_linear_3_28" x1="84.6407" y1="93.9293" x2="360.659" y2="369.271" gradientUnits="userSpaceOnUse">
<stop stop-color="#E47CDF"/>
<stop offset="1" stop-color="#819DF9"/>
</linearGradient>
</defs>
</svg>
