<svg width="180" height="180" viewBox="0 0 180 180" fill="none" xmlns="http://www.w3.org/2000/svg">
<g clip-path="url(#clip0_43_238)">
<path d="M90.3736 1.68066C41.8023 1.68066 2.42749 41.0555 2.42749 89.6267C2.42749 138.198 41.8023 177.573 90.3736 177.573C138.945 177.573 178.32 138.198 178.32 89.6267C178.32 41.0555 138.945 1.68066 90.3736 1.68066ZM18.1143 48.6472C47.581 78.187 77.4998 84.9142 103.074 80.9878C128.751 77.0458 150.231 62.3325 162.577 48.7059L165.068 50.9626C152.311 65.0422 130.169 80.2286 103.585 84.3104C76.8986 88.4074 45.9199 81.2814 15.7347 51.0208L16.9243 49.834L18.1143 48.6472ZM154.525 36.6316L155.804 37.7221C145.576 49.7186 126.454 64.2004 103.062 68.501C79.5377 72.8255 51.9167 66.8082 24.9971 38.1542L27.4464 35.853C53.6334 63.7269 80.1229 69.3005 102.454 65.1953C124.916 61.0661 143.393 47.0982 153.247 35.5415L154.525 36.6316ZM39.0075 24.7313C59.7668 48.1218 81.176 52.8884 99.4314 49.5752C117.829 46.2363 133.261 34.6417 141.73 24.9283L142.997 26.0329L144.263 27.1372C135.439 37.2582 119.372 49.3721 100.031 52.8821C80.5486 56.4182 57.9818 51.1739 36.4937 26.9621L37.7504 25.8469L39.0075 24.7313ZM51.799 15.5776C68.5629 33.216 84.7715 36.7157 98.1528 34.2082C111.667 31.6757 122.592 22.9585 128.488 15.6779L129.795 16.7355L131.1 17.7931C124.848 25.5122 113.273 34.7945 98.7716 37.5119C84.137 40.2544 66.8133 36.2539 49.3631 17.893L50.5809 16.7355L51.799 15.5776Z" stroke="#F7941D" stroke-width="3.361"/>
<path d="M178.32 89.6267C178.32 138.198 138.945 177.573 90.3736 177.573C41.8023 177.573 2.42749 138.198 2.42749 89.6267C2.42749 41.0555 41.8023 1.68066 90.3736 1.68066C138.945 1.68066 178.32 41.0555 178.32 89.6267ZM131.353 161.886C101.813 132.419 95.086 102.5 99.0124 76.9259C102.955 51.2498 117.668 29.7692 131.294 17.4229L129.038 14.9321C114.958 27.6887 99.7716 49.8314 95.6899 76.4158C91.5928 103.102 98.7189 134.08 128.979 164.265L130.166 163.076L131.353 161.886ZM143.369 25.4749L142.278 24.196C130.282 34.4248 115.8 53.5461 111.499 76.9386C107.175 100.463 113.192 128.084 141.846 155.003L144.147 152.554C116.273 126.367 110.7 99.8774 114.805 77.5462C118.934 55.0846 132.902 36.6071 144.459 26.7535L143.369 25.4749ZM155.269 140.993C131.878 120.233 127.112 98.8243 130.425 80.5688C133.764 62.1715 145.359 46.7389 155.072 38.2703L153.967 37.0036L152.863 35.737C142.742 44.5614 130.628 60.6284 127.118 79.9691C123.582 99.4517 128.826 122.019 153.038 143.506L154.153 142.25L155.269 140.993ZM164.423 128.201C146.784 111.437 143.285 95.2288 145.792 81.8475C148.325 68.333 157.042 57.4086 164.323 51.5119L163.265 50.2056L162.207 48.9C154.488 55.1519 145.206 66.7271 142.488 81.2287C139.746 95.8632 143.747 113.187 162.107 130.637L163.265 129.419L164.423 128.201Z" stroke="#D27728" stroke-width="3.361"/>
<path d="M90.3736 178.32C41.8023 178.32 2.42749 138.945 2.42749 90.3738C2.42749 41.8025 41.8023 2.42773 90.3736 2.42773C138.945 2.42773 178.32 41.8025 178.32 90.3738C178.32 138.945 138.945 178.32 90.3736 178.32ZM18.1143 131.353C47.581 101.814 77.4998 95.0863 103.074 99.0127C128.751 102.955 150.231 117.668 162.577 131.295L165.068 129.038C152.311 114.958 130.169 99.7719 103.585 95.6901C76.8986 91.5931 45.9199 98.7191 15.7347 128.98L16.9243 130.166L18.1143 131.353ZM154.525 143.369L155.804 142.278C145.576 130.282 126.454 115.8 103.062 111.5C79.5377 107.175 51.9167 113.192 24.9971 141.846L27.4464 144.147C53.6334 116.274 80.1229 110.7 102.454 114.805C124.916 118.934 143.393 132.902 153.247 144.459L154.525 143.369ZM39.0075 155.269C59.7668 131.879 81.176 127.112 99.4314 130.425C117.829 133.764 133.261 145.359 141.73 155.072L142.997 153.968L144.263 152.863C135.439 142.742 119.372 130.628 100.031 127.118C80.5486 123.582 57.9818 128.827 36.4937 153.038L37.7504 154.154L39.0075 155.269ZM51.799 164.423C68.5629 146.784 84.7715 143.285 98.1528 145.792C111.667 148.325 122.592 157.042 128.488 164.323L129.795 163.265L131.1 162.207C124.848 154.489 113.273 145.206 98.7716 142.489C84.137 139.746 66.8133 143.747 49.3631 162.108L50.5809 163.265L51.799 164.423Z" stroke="#D27728" stroke-width="3.361"/>
<path d="M90.3736 178.32C41.8023 178.32 2.42749 138.945 2.42749 90.3738C2.42749 41.8025 41.8023 2.42773 90.3736 2.42773C138.945 2.42773 178.32 41.8025 178.32 90.3738C178.32 138.945 138.945 178.32 90.3736 178.32ZM18.1143 131.353C47.581 101.814 77.4998 95.0863 103.074 99.0127C128.751 102.955 150.231 117.668 162.577 131.295L165.068 129.038C152.311 114.958 130.169 99.7719 103.585 95.6901C76.8986 91.5931 45.9199 98.7191 15.7347 128.98L16.9243 130.166L18.1143 131.353ZM154.525 143.369L155.804 142.278C145.576 130.282 126.454 115.8 103.062 111.5C79.5377 107.175 51.9167 113.192 24.9971 141.846L27.4464 144.147C53.6334 116.274 80.1229 110.7 102.454 114.805C124.916 118.934 143.393 132.902 153.247 144.459L154.525 143.369ZM39.0075 155.269C59.7668 131.879 81.176 127.112 99.4314 130.425C117.829 133.764 133.261 145.359 141.73 155.072L142.997 153.968L144.263 152.863C135.439 142.742 119.372 130.628 100.031 127.118C80.5486 123.582 57.9818 128.827 36.4937 153.038L37.7504 154.154L39.0075 155.269ZM51.799 164.423C68.5629 146.784 84.7715 143.285 98.1528 145.792C111.667 148.325 122.592 157.042 128.488 164.323L129.795 163.265L131.1 162.207C124.848 154.489 113.273 145.206 98.7716 142.489C84.137 139.746 66.8133 143.747 49.3631 162.108L50.5809 163.265L51.799 164.423Z" stroke="#D27728" stroke-width="3.361"/>
<path d="M1.68042 89.6267C1.68042 138.198 41.0552 177.573 89.6265 177.573C138.198 177.573 177.573 138.198 177.573 89.6267C177.573 41.0555 138.198 1.68066 89.6265 1.68066C41.0552 1.68066 1.68042 41.0555 1.68042 89.6267ZM50.9623 14.9321C65.0415 27.6885 80.417 50.0446 84.6922 76.8393C88.9838 103.737 82.0568 134.938 51.7884 165.132L49.4148 162.752C78.9467 133.294 85.4891 103.164 81.373 77.3688C77.2408 51.4697 62.3326 29.7694 48.7056 17.4229L50.9623 14.9321ZM36.6313 25.4749L37.7219 24.196C49.7206 34.4265 64.3761 53.7989 68.8563 77.4368C73.3611 101.207 67.5324 129.088 38.8683 156.017L36.5671 153.568C64.431 127.391 69.8358 100.655 65.5539 78.0627C61.2474 55.3393 47.0957 36.6054 35.5413 26.7535L36.6313 25.4749ZM26.0327 37.0036L27.137 35.737C37.2643 44.5666 49.491 60.9216 53.1212 80.5397C56.7776 100.299 51.667 123.161 27.4433 144.659L25.2121 142.146C48.591 121.397 53.2497 99.7063 49.8162 81.1514C46.357 62.4553 34.6351 46.7333 24.9281 38.2703L26.0327 37.0036ZM16.7353 50.2056L17.7928 48.9C25.5186 55.1575 34.9486 67.005 37.8242 81.7665C40.7262 96.6632 36.8997 114.271 18.5226 131.737L16.2075 129.301C33.8297 112.552 37.1881 96.078 34.5253 82.4092C31.8361 68.6048 22.9516 57.403 15.6776 51.5119L16.7353 50.2056Z" stroke="#F7941D" stroke-width="3.361"/>
<path d="M90 3.36133C42.1506 3.36133 3.36096 42.151 3.36096 90.0003C3.36096 137.85 42.1506 176.639 90 176.639C137.849 176.639 176.639 137.85 176.639 90.0003C176.639 42.151 137.849 3.36133 90 3.36133Z" stroke="#F7941D" stroke-width="6.72199"/>
</g>
<defs>
<clipPath id="clip0_43_238">
<rect width="180" height="180" fill="white"/>
</clipPath>
</defs>
</svg>
