<svg width="314" height="362" viewBox="0 0 314 362" fill="none" xmlns="http://www.w3.org/2000/svg">
<path d="M156.542 120.667L208.5 150.667L156.542 180.667L104.584 150.667L156.542 120.667Z" fill="#3EB03E" stroke="#0F420F" stroke-width="1.33333" stroke-linejoin="round"/>
<path d="M104.584 210.667L156.542 240.667V180.667L104.584 150.667V210.667Z" fill="#228B22" stroke="#0F420F" stroke-width="1.33333" stroke-linejoin="round"/>
<path d="M208.5 210.667L156.542 240.667V180.667L208.5 150.667V210.667Z" fill="#145A14" stroke="#0F420F" stroke-width="1.33333" stroke-linejoin="round"/>
<path d="M208.5 150.667L260.458 180.667L208.5 210.667L156.542 180.667L208.5 150.667Z" fill="#3EB03E" stroke="#0F420F" stroke-width="1.33333" stroke-linejoin="round"/>
<path d="M156.542 240.667L208.5 270.667V210.667L156.542 180.667V240.667Z" fill="#228B22" stroke="#0F420F" stroke-width="1.33333" stroke-linejoin="round"/>
<path d="M260.458 240.667L208.5 270.667V210.667L260.458 180.667V240.667Z" fill="#145A14" stroke="#0F420F" stroke-width="1.33333" stroke-linejoin="round"/>
<path d="M260.458 180.667L312.417 210.667L260.458 240.667L208.5 210.667L260.458 180.667Z" fill="#3EB03E" stroke="#0F420F" stroke-width="1.33333" stroke-linejoin="round"/>
<path d="M208.5 270.667L260.458 300.667V240.667L208.5 210.667V270.667Z" fill="#228B22" stroke="#0F420F" stroke-width="1.33333" stroke-linejoin="round"/>
<path d="M312.417 270.667L260.458 300.667V240.667L312.417 210.667V270.667Z" fill="#145A14" stroke="#0F420F" stroke-width="1.33333" stroke-linejoin="round"/>
<path d="M104.583 150.667L156.542 180.667L104.583 210.667L52.625 180.667L104.583 150.667Z" fill="#3EB03E" stroke="#0F420F" stroke-width="1.33333" stroke-linejoin="round"/>
<path d="M52.625 240.667L104.583 270.667V210.667L52.625 180.667V240.667Z" fill="#228B22" stroke="#0F420F" stroke-width="1.33333" stroke-linejoin="round"/>
<path d="M156.542 240.667L104.584 270.667V210.667L156.542 180.667V240.667Z" fill="#145A14" stroke="#0F420F" stroke-width="1.33333" stroke-linejoin="round"/>
<path d="M208.5 210.667L260.458 240.667L208.5 270.667L156.542 240.667L208.5 210.667Z" fill="#3EB03E" stroke="#0F420F" stroke-width="1.33333" stroke-linejoin="round"/>
<path d="M156.542 300.667L208.5 330.667V270.667L156.542 240.667V300.667Z" fill="#228B22" stroke="#0F420F" stroke-width="1.33333" stroke-linejoin="round"/>
<path d="M260.458 300.667L208.5 330.667V270.667L260.458 240.667V300.667Z" fill="#145A14" stroke="#0F420F" stroke-width="1.33333" stroke-linejoin="round"/>
<path d="M52.6251 180.667L104.583 210.667L52.6251 240.667L0.666748 210.667L52.6251 180.667Z" fill="#3EB03E" stroke="#0F420F" stroke-width="1.33333" stroke-linejoin="round"/>
<path d="M0.666748 270.667L52.6251 300.667V240.667L0.666748 210.667V270.667Z" fill="#228B22" stroke="#0F420F" stroke-width="1.33333" stroke-linejoin="round"/>
<path d="M104.583 270.667L52.625 300.667V240.667L104.583 210.667V270.667Z" fill="#145A14" stroke="#0F420F" stroke-width="1.33333" stroke-linejoin="round"/>
<path d="M104.583 210.667L156.542 240.667L104.583 270.667L52.625 240.667L104.583 210.667Z" fill="#3EB03E" stroke="#0F420F" stroke-width="1.33333" stroke-linejoin="round"/>
<path d="M52.625 300.667L104.583 330.667V270.667L52.625 240.667V300.667Z" fill="#228B22" stroke="#0F420F" stroke-width="1.33333" stroke-linejoin="round"/>
<path d="M156.542 300.667L104.584 330.667V270.667L156.542 240.667V300.667Z" fill="#145A14" stroke="#0F420F" stroke-width="1.33333" stroke-linejoin="round"/>
<path d="M156.542 240.667L208.5 270.667L156.542 300.667L104.584 270.667L156.542 240.667Z" fill="#3EB03E" stroke="#0F420F" stroke-width="1.33333" stroke-linejoin="round"/>
<path d="M104.584 330.667L156.542 360.667V300.667L104.584 270.667V330.667Z" fill="#228B22" stroke="#0F420F" stroke-width="1.33333" stroke-linejoin="round"/>
<path d="M208.5 330.667L156.542 360.667V300.667L208.5 270.667V330.667Z" fill="#145A14" stroke="#0F420F" stroke-width="1.33333" stroke-linejoin="round"/>
<path d="M156.542 60.6667L208.5 90.6668L156.542 120.667L104.584 90.6668L156.542 60.6667Z" fill="#3EB03E" stroke="#0F420F" stroke-width="1.33333" stroke-linejoin="round"/>
<path d="M104.584 150.667L156.542 180.667V120.667L104.584 90.6667V150.667Z" fill="#228B22" stroke="#0F420F" stroke-width="1.33333" stroke-linejoin="round"/>
<path d="M208.5 150.667L156.542 180.667V120.667L208.5 90.6667V150.667Z" fill="#145A14" stroke="#0F420F" stroke-width="1.33333" stroke-linejoin="round"/>
<path d="M167.209 172.667H145.876C142.93 172.667 140.542 175.055 140.542 178V191.333C140.542 194.279 142.93 196.667 145.876 196.667H167.209C170.155 196.667 172.543 194.279 172.543 191.333V178C172.543 175.055 170.155 172.667 167.209 172.667Z" fill="#FFC517"/>
<path d="M148.542 172.667V162C148.542 159.878 149.385 157.843 150.886 156.343C152.386 154.843 154.421 154 156.542 154C158.664 154 160.699 154.843 162.199 156.343C163.7 157.843 164.542 159.878 164.542 162V172.667" stroke="#FFC517" stroke-width="5.33334"/>
<path d="M156.542 186C158.751 186 160.542 184.209 160.542 182C160.542 179.791 158.751 178 156.542 178C154.333 178 152.542 179.791 152.542 182C152.542 184.209 154.333 186 156.542 186Z" fill="#145A14"/>
<path d="M154.542 182H158.542L159.209 190H153.875L154.542 182Z" fill="#145A14"/>
<path d="M260.458 120.667L312.417 150.667L260.458 180.667L208.5 150.667L260.458 120.667Z" fill="#3EB03E" stroke="#0F420F" stroke-width="1.33333" stroke-linejoin="round"/>
<path d="M208.5 210.667L260.458 240.667V180.667L208.5 150.667V210.667Z" fill="#228B22" stroke="#0F420F" stroke-width="1.33333" stroke-linejoin="round"/>
<path d="M312.417 210.667L260.458 240.667V180.667L312.417 150.667V210.667Z" fill="#145A14" stroke="#0F420F" stroke-width="1.33333" stroke-linejoin="round"/>
<path d="M52.6251 120.667L104.583 150.667L52.6251 180.667L0.666748 150.667L52.6251 120.667Z" fill="#3EB03E" stroke="#0F420F" stroke-width="1.33333" stroke-linejoin="round"/>
<path d="M0.666748 210.667L52.6251 240.667V180.667L0.666748 150.667V210.667Z" fill="#228B22" stroke="#0F420F" stroke-width="1.33333" stroke-linejoin="round"/>
<path d="M104.583 210.667L52.625 240.667V180.667L104.583 150.667V210.667Z" fill="#145A14" stroke="#0F420F" stroke-width="1.33333" stroke-linejoin="round"/>
<path d="M156.542 180.667L208.5 210.667L156.542 240.667L104.584 210.667L156.542 180.667Z" fill="#3EB03E" stroke="#0F420F" stroke-width="1.33333" stroke-linejoin="round"/>
<path d="M104.584 270.667L156.542 300.667V240.667L104.584 210.667V270.667Z" fill="#228B22" stroke="#0F420F" stroke-width="1.33333" stroke-linejoin="round"/>
<path d="M208.5 270.667L156.542 300.667V240.667L208.5 210.667V270.667Z" fill="#145A14" stroke="#0F420F" stroke-width="1.33333" stroke-linejoin="round"/>
<path d="M156.542 0.666748L208.5 30.6668L156.542 60.6668L104.584 30.6668L156.542 0.666748Z" fill="#3EB03E" stroke="#0F420F" stroke-width="1.33333" stroke-linejoin="round"/>
<path d="M104.584 90.6666L156.542 120.667V60.6665L104.584 30.6665V90.6666Z" fill="#228B22" stroke="#0F420F" stroke-width="1.33333" stroke-linejoin="round"/>
<path d="M208.5 90.6666L156.542 120.667V60.6665L208.5 30.6665V90.6666Z" fill="#145A14" stroke="#0F420F" stroke-width="1.33333" stroke-linejoin="round"/>
<path d="M208.5 30.6665L260.458 60.6665L208.5 90.6666L156.542 60.6665L208.5 30.6665Z" fill="#3EB03E" stroke="#0F420F" stroke-width="1.33333" stroke-linejoin="round"/>
<path d="M156.542 120.667L208.5 150.667V90.6668L156.542 60.6667V120.667Z" fill="#228B22" stroke="#0F420F" stroke-width="1.33333" stroke-linejoin="round"/>
<path d="M260.458 120.667L208.5 150.667V90.6668L260.458 60.6667V120.667Z" fill="#145A14" stroke="#0F420F" stroke-width="1.33333" stroke-linejoin="round"/>
<path d="M260.458 60.6667L312.417 90.6668L260.458 120.667L208.5 90.6668L260.458 60.6667Z" fill="#3EB03E" stroke="#0F420F" stroke-width="1.33333" stroke-linejoin="round"/>
<path d="M208.5 150.667L260.458 180.667V120.667L208.5 90.6667V150.667Z" fill="#228B22" stroke="#0F420F" stroke-width="1.33333" stroke-linejoin="round"/>
<path d="M312.417 150.667L260.458 180.667V120.667L312.417 90.6667V150.667Z" fill="#145A14" stroke="#0F420F" stroke-width="1.33333" stroke-linejoin="round"/>
<path d="M104.583 30.6665L156.542 60.6665L104.583 90.6666L52.625 60.6665L104.583 30.6665Z" fill="#3EB03E" stroke="#0F420F" stroke-width="1.33333" stroke-linejoin="round"/>
<path d="M52.625 120.667L104.583 150.667V90.6668L52.625 60.6667V120.667Z" fill="#228B22" stroke="#0F420F" stroke-width="1.33333" stroke-linejoin="round"/>
<path d="M156.542 120.667L104.584 150.667V90.6668L156.542 60.6667V120.667Z" fill="#145A14" stroke="#0F420F" stroke-width="1.33333" stroke-linejoin="round"/>
<path d="M208.5 90.6667L260.458 120.667L208.5 150.667L156.542 120.667L208.5 90.6667Z" fill="#3EB03E" stroke="#0F420F" stroke-width="1.33333" stroke-linejoin="round"/>
<path d="M156.542 180.667L208.5 210.667V150.667L156.542 120.667V180.667Z" fill="#228B22" stroke="#0F420F" stroke-width="1.33333" stroke-linejoin="round"/>
<path d="M260.458 180.667L208.5 210.667V150.667L260.458 120.667V180.667Z" fill="#145A14" stroke="#0F420F" stroke-width="1.33333" stroke-linejoin="round"/>
<path d="M52.6251 60.6667L104.583 90.6668L52.6251 120.667L0.666748 90.6668L52.6251 60.6667Z" fill="#3EB03E" stroke="#0F420F" stroke-width="1.33333" stroke-linejoin="round"/>
<path d="M0.666748 150.667L52.6251 180.667V120.667L0.666748 90.6667V150.667Z" fill="#228B22" stroke="#0F420F" stroke-width="1.33333" stroke-linejoin="round"/>
<path d="M104.583 150.667L52.625 180.667V120.667L104.583 90.6667V150.667Z" fill="#145A14" stroke="#0F420F" stroke-width="1.33333" stroke-linejoin="round"/>
<path d="M104.583 90.6667L156.542 120.667L104.583 150.667L52.625 120.667L104.583 90.6667Z" fill="#3EB03E" stroke="#0F420F" stroke-width="1.33333" stroke-linejoin="round"/>
<path d="M52.625 180.667L104.583 210.667V150.667L52.625 120.667V180.667Z" fill="#228B22" stroke="#0F420F" stroke-width="1.33333" stroke-linejoin="round"/>
<path d="M156.542 180.667L104.584 210.667V150.667L156.542 120.667V180.667Z" fill="#145A14" stroke="#0F420F" stroke-width="1.33333" stroke-linejoin="round"/>
<path d="M156.542 120.667L208.5 150.667L156.542 180.667L104.584 150.667L156.542 120.667Z" fill="#3EB03E" stroke="#0F420F" stroke-width="1.33333" stroke-linejoin="round"/>
<path d="M104.584 210.667L156.542 240.667V180.667L104.584 150.667V210.667Z" fill="#228B22" stroke="#0F420F" stroke-width="1.33333" stroke-linejoin="round"/>
<path d="M208.5 210.667L156.542 240.667V180.667L208.5 150.667V210.667Z" fill="#145A14" stroke="#0F420F" stroke-width="1.33333" stroke-linejoin="round"/>
</svg>
